<svg class="brand" viewBox="0 0 680 340" xmlns="http://www.w3.org/2000/svg">
	<defs>
		<linearGradient id="Gradient1">
			<stop style="stop-color:#9e0b0f;" offset="0%" />
			<stop style="stop-color:#9e0b0f;" offset="45%" />
			<stop style="stop-color: black; stop-opacity: 0;" offset="50%" />
			<stop style="stop-color:#4b0082;" offset="55%" />
			<stop style="stop-color:#4b0082;" offset="100%" />
		</linearGradient>
	</defs>
	<path style="fill:#0087fe"
		d="M 434 134 L 390 134 L 390 190 L 446 190 L 490 190 L 490 210 L 390 211 L 362 328 L 327 328 C 346 274 350 224 350 211 L 276 211 L 270 190 L 350 190 L 350 130 L 326 126 L 318 104 L 238 86 L 206 6 C 254 54 626 54 674 6 L 642 86 L 562 104 L 554 126 L 530 130 L 530 190 L 610 190 L 604 211 L 530 211 C 530 224 535 274 558 328 L 522 328 L 490 211 L 490 134 L 446 134 L 446 190 L 434 190 L 434 134 Z">
	</path>

	<g style="stroke:#0087fe;stroke-width:12px;fill:none;">
		<ellipse cx="438" cy="237" rx="16" ry="16"></ellipse>
		<path d="M 386 285 C 422 299 406 269 438 269 C 470 269 454 299 490 285"></path>
		<path d="M 418 325 L 398 325 C 380 325 380 303 398 303 L 418 303 L 438 313"></path>
		<path d="M 454 303 L 478 303 C 496 303 496 325 478 325 L 454 325"></path>
	</g>

	<g style="fill:url(#Gradient1); font-family: Shojumaru; font-size: 140px;">
		<text x="8" y="185">Zet</text>
		<text x="8" y="310">Jot</text>
	</g>
</svg>