<svg viewBox="0 0 500 400" xmlns="http://www.w3.org/2000/svg">
  <path d="M 244 128 L 200 128 L 200 184 L 256 184 L 300 184 L 300 204 L 200 205 L 138 390 L 100 390 C 100 410 168 252 160 205 L 86 205 L 80 184 L 160 184 L 160 124 L 136 120 L 128 98 L 48 80 L 16 0 C 64 48 436 48 484 0 L 452 80 L 372 98 L 364 120 L 340 124 L 340 184 L 420 184 L 414 205 L 340 205 C 338 252 400 390 400 390 L 362 390 L 300 205 L 300 128 L 256 128 L 256 184 L 244 184 L 244 128 Z" fill="#000"></path>
  <ellipse cx="250" cy="304" rx="16" ry="16"></ellipse>
  <path d="M 198 352 C 234 366 218 336 250 336 C 282 336 266 366 302 352"></path>
  <path d="M 230 392 L 210 392 C 192 392 192 370 210 370 L 230 370 L 250 380"></path>
  <path d="M 266 370 L 290 370 C 308 370 308 392 290 392 L 266 392"></path>
</svg>