<?xml version="1.0" encoding="utf-8"?>
<svg viewBox="0 0 480 337" style="filter:drop-shadow(0px 0px .25em #888)" xmlns="http://www.w3.org/2000/svg">
  <path style="fill:#fff;" d="M 234 134 L 190 134 L 190 190 L 246 190 L 290 190 L 290 210 L 190 211 L 162 328 L 127 328 C 146 274 150 224 150 211 L 76 211 L 70 190 L 150 190 L 150 130 L 126 126 L 118 104 L 38 86 L 6 6 C 54 54 426 54 474 6 L 442 86 L 362 104 L 354 126 L 330 130 L 330 190 L 410 190 L 404 211 L 330 211 C 330 224 335 274 358 328 L 322 328 L 290 211 L 290 134 L 246 134 L 246 190 L 234 190 L 234 134 Z"/>
  <ellipse cx="239" cy="236" rx="16" ry="16" style="fill:none;stroke-width:6px;stroke:#fff"/>
  <path d="M 187 279 C 223 293 207 263 239 263 C 271 263 255 293 291 279" style="fill:none;stroke-width:6px;stroke:#fff"/>
  <path d="M 219 324 L 199 324 C 181 324 181 302 199 302 L 219 302 L 239 312" style="fill:none;stroke-width:6px;stroke:#fff"/>
  <path d="M 255 302 L 279 302 C 297 302 297 324 279 324 L 255 324" style="fill:none;stroke-width:6px;stroke:#fff"/>
  <!-- FONT https://fonts.google.com/specimen/Shojumaru -->
  <text style="fill:#9e0b0f;font-size:150px" x="4" y="324">Z</text>
  <text style="fill:#4b0082;font-size:150px" x="420" y="324">J</text>
</svg>